<mxfile host="app.diagrams.net" modified="2022-02-16T07:14:43.341Z" agent="5.0 (Macintosh; Intel Mac OS X 10_15_7) AppleWebKit/537.36 (KHTML, like Gecko) Chrome/97.0.4692.99 Safari/537.36" etag="ZwB1vCbTXHrZ9zhSdl3p" version="16.5.6" type="github">
  <diagram id="0z0_dtok1Ij6bk1odiST" name="Page-1">
    <mxGraphModel dx="588" dy="393" grid="1" gridSize="10" guides="1" tooltips="1" connect="1" arrows="1" fold="1" page="1" pageScale="1" pageWidth="850" pageHeight="1100" math="0" shadow="0">
      <root>
        <mxCell id="0" />
        <mxCell id="1" parent="0" />
        <mxCell id="jrg8utLBMFztXWpAARq3-1" value="" style="rounded=1;whiteSpace=wrap;html=1;" vertex="1" parent="1">
          <mxGeometry x="40" y="40" width="150" height="200" as="geometry" />
        </mxCell>
        <mxCell id="jrg8utLBMFztXWpAARq3-2" value="" style="verticalLabelPosition=bottom;verticalAlign=top;html=1;shape=mxgraph.basic.diag_snip_rect;dx=6;" vertex="1" parent="1">
          <mxGeometry x="65" y="70" width="100" height="60" as="geometry" />
        </mxCell>
      </root>
    </mxGraphModel>
  </diagram>
</mxfile>
